<svg
  width="100"
  height="71"
  viewBox="0 0 71 71"
  fill="none"
  xmlns="http://www.w3.org/2000/svg"
>
  <g clip-path="url(#clip0)">
    <path
      fill-rule="evenodd"
      clip-rule="evenodd"
      d="M35.2755 0C54.7591 0 70.5544 15.7931 70.5544 35.2767C70.5544 40.3992 69.4617 45.2656 67.4976 49.6581L82.099 70.5535H53.597L43.3071 55.8281L48.3031 68.0687C44.272 69.6717 39.8774 70.555 35.2755 70.555C15.7953 70.555 0 54.761 0 35.2774C0 15.7937 15.7953 0.000623137 35.2755 0.000623137V0ZM35.2767 19.5896C39.6188 19.5896 43.5476 21.3537 46.3879 24.203L42.04 28.5908C45.3214 30.7786 47.484 34.5146 47.484 38.7554C47.484 45.3912 42.188 50.7932 35.5911 50.9592L35.2767 50.9639H35.2755C30.9344 50.9627 27.0055 49.2001 24.1665 46.3505L28.5132 41.9639C25.2305 39.7761 23.0679 36.0388 23.0679 31.7993C23.0679 25.0564 28.5347 19.5908 35.2767 19.5908L35.2755 19.5896H35.2767Z"
      fill="url(#paint0)"
    />
  </g>
  <defs>
    <linearGradient
      id="paint0"
      x1="65.7111"
      y1="63.9735"
      x2="16.3879"
      y2="6.58127"
      gradientUnits="userSpaceOnUse"
    >
      <stop stop-color="#0078BF" />
      <stop offset="1" stop-color="#00A0E3" />
    </linearGradient>
    <clipPath id="clip0">
      <rect width="71" height="71" fill="white" />
    </clipPath>
  </defs>
</svg>
