<svg width="16" height="16" viewBox="0 0 16 16" fill="none" xmlns="http://www.w3.org/2000/svg">
  <path
    d="M12.3333 11.3333V4.66667C12.3333 3.40959 12.3333 2.78105 11.9428 2.39053C11.5522
                                2 10.9237 2 9.66663 2H6.33329C5.07621 2 4.44767 2 4.05715 2.39053C3.66663 2.78105 3.66663
                                3.40959 3.66663 4.66667V11.3333C3.66663 12.5904 3.66663 13.2189 4.05715 13.6095C4.44767 14
                                5.07621 14 6.33329 14H9.66663C10.9237 14 11.5522 14 11.9428 13.6095C12.3333 13.2189 12.3333 12.5904
                                12.3333 11.3333Z"
    stroke="black"
  />
  <path
    d="M12.3334 4H12.6667C13.6095 4 14.0809 4 14.3738 4.29289C14.6667 4.58579 14.6667
                                5.05719 14.6667 6V10.6667C14.6667 11.6095 14.6667 12.0809 14.3738 12.3738C14.0809 12.6667
                                13.6095 12.6667 12.6667 12.6667H12.3334"
    stroke="black"
    stroke-linecap="round"
  />
  <path
    d="M3.66671 4H3.33337C2.39057 4 1.91916 4 1.62627 4.29289C1.33337 4.58579 1.33337
                                5.05719 1.33337 6V10.6667C1.33337 11.6095 1.33337 12.0809 1.62627 12.3738C1.91916 12.6667
                                2.39057 12.6667 3.33337 12.6667H3.66671"
    stroke="black"
    stroke-linecap="round"
  />
  <path
    d="M9.66671 5.3335H6.33337M9.66671 8.00016H6.33337M9.66671 10.6668H6.33337"
    stroke="black"
    stroke-linecap="round"
  />
</svg>
